Coordinates
version=1
nRows=13
nColumns=40
inDegrees=yes

Units are S.I. units (second, meters, Newtons, ...)
If the header above contains a line with 'inDegrees', this indicates whether rotational values are in degrees (yes) or radians (no).

endheader
time	pelvis_tilt	pelvis_list	pelvis_rotation	pelvis_tx	pelvis_ty	pelvis_tz	hip_flexion_r	hip_adduction_r	hip_rotation_r	knee_angle_r	knee_angle_r_beta	ankle_angle_r	subtalar_angle_r	mtp_angle_r	hip_flexion_l	hip_adduction_l	hip_rotation_l	knee_angle_l	knee_angle_l_beta	ankle_angle_l	subtalar_angle_l	mtp_angle_l	lumbar_extension	lumbar_bending	lumbar_rotation	arm_flex_r	arm_add_r	arm_rot_r	elbow_flex_r	pro_sup_r	wrist_flex_r	wrist_dev_r	arm_flex_l	arm_add_l	arm_rot_l	elbow_flex_l	pro_sup_l	wrist_flex_l	wrist_dev_l
      0.40000000	     -0.27905002	      8.41539932	    -89.84002100	      0.21608343	      0.91290719	     -0.35512620	     16.12266514	     -6.39689043	     -7.77428582	     65.16972343	      1.13742625	     -5.55930341	      0.00000000	      0.00000000	     23.40886767	      2.94653424	      6.56892074	     21.83246852	      0.38104846	      7.77622273	      0.00000000	      0.00000000	     -4.07626123	      0.08387540	     -3.65095688	      0.00000000	      0.00000000	      0.00000000	      0.00000000	      0.00000000	      0.00000000	      0.00000000	      0.00000000	      0.00000000	      0.00000000	      0.00000000	      0.00000000	      0.00000000	      0.00000000
      0.41000000	     -0.32682406	      8.79378370	    -89.82668762	      0.21644298	      0.91608255	     -0.33972380	     19.09288913	     -6.55225640	     -7.92553910	     65.98031289	      1.15157370	     -3.34959479	      0.00000000	      0.00000000	     21.79578017	      2.84943887	      6.65852375	     20.13336060	      0.35139343	      7.84302596	      0.00000000	      0.00000000	     -3.73223512	      0.18312034	     -3.69403571	      0.00000000	      0.00000000	      0.00000000	      0.00000000	      0.00000000	      0.00000000	      0.00000000	      0.00000000	      0.00000000	      0.00000000	      0.00000000	      0.00000000	      0.00000000	      0.00000000
      0.42000000	     -0.42333584	      9.17806784	    -89.80921518	      0.21662102	      0.91888848	     -0.32438351	     21.92377276	     -6.55823619	     -8.06503529	     66.11347117	      1.15389775	     -1.27896916	      0.00000000	      0.00000000	     20.19642423	      2.70201250	      6.85309100	     18.42497917	      0.32157655	      7.93099590	      0.00000000	      0.00000000	     -3.40048426	      0.30929790	     -3.71672371	      0.00000000	      0.00000000	      0.00000000	      0.00000000	      0.00000000	      0.00000000	      0.00000000	      0.00000000	      0.00000000	      0.00000000	      0.00000000	      0.00000000	      0.00000000	      0.00000000
      0.43000000	     -0.53033483	      9.55716157	    -89.78597056	      0.21665631	      0.92127541	     -0.30901605	     24.57974245	     -6.46687645	     -8.18412457	     65.61717465	      1.14523574	      0.70199900	      0.00000000	      0.00000000	     18.59772706	      2.54351205	      7.07815304	     16.72415335	      0.29189154	      8.03214557	      0.00000000	      0.00000000	     -3.07058609	      0.43501171	     -3.74184695	      0.00000000	      0.00000000	      0.00000000	      0.00000000	      0.00000000	      0.00000000	      0.00000000	      0.00000000	      0.00000000	      0.00000000	      0.00000000	      0.00000000	      0.00000000	      0.00000000
      0.44000000	     -0.65206718	      9.91258922	    -89.76174394	      0.21660380	      0.92326405	     -0.29360748	     27.01410659	     -6.27245934	     -8.26742299	     64.49442043	      1.12563999	      2.49666244	      0.00000000	      0.00000000	     16.99454220	      2.37630380	      7.30320366	     15.05550464	      0.26276813	      8.16755950	      0.00000000	      0.00000000	     -2.76088952	      0.57821659	     -3.77063749	      0.00000000	      0.00000000	      0.00000000	      0.00000000	      0.00000000	      0.00000000	      0.00000000	      0.00000000	      0.00000000	      0.00000000	      0.00000000	      0.00000000	      0.00000000	      0.00000000
      0.45000000	     -0.77605031	     10.12371525	    -89.72518876	      0.21642347	      0.92501647	     -0.27802168	     29.06401062	     -5.99541377	     -8.31824338	     62.80349542	      1.09612778	      4.28572006	      0.00000000	      0.00000000	     15.21305228	      2.20436811	      7.59430158	     13.35443311	      0.23307883	      8.24499768	      0.00000000	      0.00000000	     -2.61464896	      0.69575252	     -3.82798730	      0.00000000	      0.00000000	      0.00000000	      0.00000000	      0.00000000	      0.00000000	      0.00000000	      0.00000000	      0.00000000	      0.00000000	      0.00000000	      0.00000000	      0.00000000	      0.00000000
      0.46000000	     -0.96511791	     10.14319900	    -89.67782618	      0.21612354	      0.92662595	     -0.26211713	     30.63476170	     -5.55902760	     -8.31510075	     60.48277807	      1.05562362	      5.75023830	     -0.00000000	     -0.00000000	     13.17625598	      1.95381404	      7.90344815	     11.59579928	      0.20238488	      8.35243019	     -0.00000000	     -0.00000000	     -2.65995355	      0.87330268	     -3.86709700	      0.00000000	      0.00000000	      0.00000000	      0.00000000	      0.00000000	      0.00000000	      0.00000000	     -0.00000000	     -0.00000000	     -0.00000000	      0.00000000	      0.00000000	      0.00000000	     -0.00000000
      0.47000000	     -1.20723725	     10.10856040	    -89.61539560	      0.21565851	      0.92778902	     -0.24614355	     31.92931511	     -4.99471041	     -8.27490909	     57.63513158	      1.00592281	      6.79881264	      0.00000000	      0.00000000	     11.11517195	      1.63465906	      8.22106721	      9.90767744	      0.17292159	      8.53862690	      0.00000000	      0.00000000	     -2.77222803	      1.08886111	     -3.89971690	      0.00000000	      0.00000000	      0.00000000	      0.00000000	      0.00000000	      0.00000000	      0.00000000	      0.00000000	      0.00000000	      0.00000000	      0.00000000	      0.00000000	      0.00000000	      0.00000000
      0.48000000	     -1.43939189	     10.11155384	    -89.52279288	      0.21513543	      0.92827929	     -0.23013947	     33.07184775	     -4.41001533	     -8.17922965	     54.36012712	      0.94876320	      7.62019723	      0.00000000	      0.00000000	      9.14879606	      1.32436603	      8.56015149	      8.32686609	      0.14533123	      8.78770488	      0.00000000	      0.00000000	     -2.82866564	      1.28279514	     -3.96218482	      0.00000000	      0.00000000	      0.00000000	      0.00000000	      0.00000000	      0.00000000	      0.00000000	      0.00000000	      0.00000000	      0.00000000	      0.00000000	      0.00000000	      0.00000000	      0.00000000
      0.49000000	     -1.63647511	     10.03658096	    -89.38999429	      0.21459323	      0.92830214	     -0.21392961	     33.91454114	     -3.86706561	     -8.06963632	     50.66310132	      0.88423793	      8.15720557	     -0.00000000	     -0.00000000	      7.12935634	      1.04190938	      8.86071397	      6.83056260	      0.11921581	      9.07358323	      0.00000000	      0.00000000	     -2.95242823	      1.42652457	     -4.10046141	      0.00000000	      0.00000000	      0.00000000	      0.00000000	      0.00000000	      0.00000000	     -0.00000000	     -0.00000000	     -0.00000000	     -0.00000000	      0.00000000	      0.00000000	     -0.00000000	     -0.00000000
      0.50000000	     -1.76386895	     10.24356518	    -89.22454586	      0.21405235	      0.92722886	     -0.19799518	     34.94800505	     -3.41177215	     -7.89509830	     46.68826891	      0.81486401	      8.57524284	     -0.00000000	     -0.00000000	      5.51403505	      0.84908031	      9.33818243	      5.50025764	      0.09599761	      9.48771107	      0.00000000	     -0.00000000	     -2.76432899	      1.47418717	     -4.10433252	     -0.00000000	     -0.00000000	      0.00000000	      0.00000000	      0.00000000	      0.00000000	     -0.00000000	     -0.00000000	     -0.00000000	      0.00000000	      0.00000000	      0.00000000	      0.00000000	     -0.00000000
      0.51000000	     -1.80049744	     10.27362569	    -89.04775426	      0.21345672	      0.92586080	     -0.18172266	     35.54621187	     -3.05602669	     -7.68681961	     42.32792758	      0.73876170	      8.77571450	      0.00000000	     -0.00000000	      3.73975859	      0.73493099	      9.64760990	      4.26504783	      0.07443913	      9.90916985	     -0.00000000	     -0.00000000	     -2.73429622	      1.39373451	     -4.41837743	      0.00000000	      0.00000000	      0.00000000	      0.00000000	      0.00000000	     -0.00000000	     -0.00000000	     -0.00000000	      0.00000000	     -0.00000000	      0.00000000	      0.00000000	     -0.00000000	     -0.00000000
      0.52000000	     -2.10680907	      9.58062328	    -88.64539048	      0.21307181	      0.92531472	     -0.16465138	     34.90000119	     -2.57008097	     -7.94727737	     37.25365222	      0.65019889	      8.57437647	      0.00000000	      0.00000000	      1.12333672	      0.28330927	     10.06666927	      2.95454549	      0.05156655	     10.16406633	      0.00000000	      0.00000000	     -3.52780935	      1.66063474	     -4.70390266	      0.00000000	      0.00000000	      0.00000000	      0.00000000	      0.00000000	      0.00000000	      0.00000000	      0.00000000	      0.00000000	      0.00000000	      0.00000000	      0.00000000	      0.00000000	      0.00000000
